<?xml version="1.0" encoding="UTF-8" standalone="no"?>
<!-- Uploaded to: SVG Repo, www.svgrepo.com, Generator: SVG Repo Mixer Tools -->

<svg
   height="800px"
   width="800px"
   version="1.1"
   id="Capa_1"
   viewBox="0 0 21.797 21.797"
   xml:space="preserve"
   sodipodi:docname="tinymedia-dark.svg"
   inkscape:version="1.2.2 (b0a8486541, 2022-12-01)"
   xmlns:inkscape="http://www.inkscape.org/namespaces/inkscape"
   xmlns:sodipodi="http://sodipodi.sourceforge.net/DTD/sodipodi-0.dtd"
   xmlns="http://www.w3.org/2000/svg"
   xmlns:svg="http://www.w3.org/2000/svg"><defs
   id="defs9" /><sodipodi:namedview
   id="namedview7"
   pagecolor="#ffffff"
   bordercolor="#000000"
   borderopacity="0.25"
   inkscape:showpageshadow="2"
   inkscape:pageopacity="0.0"
   inkscape:pagecheckerboard="0"
   inkscape:deskcolor="#d1d1d1"
   showgrid="false"
   inkscape:zoom="0.834386"
   inkscape:cx="195.95247"
   inkscape:cy="396.09965"
   inkscape:window-width="1680"
   inkscape:window-height="982"
   inkscape:window-x="0"
   inkscape:window-y="0"
   inkscape:window-maximized="1"
   inkscape:current-layer="g4" />
<g
   id="g4"
   transform="matrix(1.1419574,0,0,1,-1.4293161,0)"
   style="fill:#999999">
	
<g
   id="g307"
   transform="matrix(1.0465624,0,0,1,-0.92516377,-0.76259057)"
   style="fill:#666666"><path
     style="display:inline;fill:#666666"
     d="m 10.653,8.76 8.145,-1.321 v 11.043 c 0,0.914 -0.681,1.644 -1.744,1.913 -1.168,0.289 -2.294,-0.2 -2.519,-1.095 -0.224,-0.897 0.541,-1.858 1.708,-2.15 0.527,-0.13 1.047,-0.103 1.481,0.05 v -6.654 l -5.969,1.092 -0.028,8.276 c -0.005,0.783 -0.713,1.554 -1.729,1.805 -1.153,0.289 -2.363,-0.26 -2.492,-1.081 -0.221,-0.886 0.534,-1.837 1.691,-2.127 0.52,-0.13 1.029,-0.104 1.456,0.046 z"
     id="path2"
     sodipodi:nodetypes="ccscccccccccccc" /><path
     d="M 8.848852,13.719329 8.881972,3.4903294 c 0,0 2.544281,-0.119 5.032607,3.298 0,0 0.0069,-1.764 -1.905927,-3.055 C 8.273309,1.4493294 8.283586,0.90932943 8.283586,0.90932943 7.571005,0.98232943 7.49792,1.4563294 7.49792,1.4563294 V 12.227329 c -0.534436,-0.164 -1.173933,-0.193 -1.829416,-0.05 -1.4502859,0.314 -2.3981106,1.363 -2.1206149,2.338 0.1632999,0.901 1.6798193,1.506 3.1289629,1.187 1.273283,-0.278 2.162868,-1.12 2.169719,-1.983 z"
     style="display:inline;fill:#666666"
     id="path285" /></g></g>
</svg>
