<?xml version="1.0" encoding="UTF-8" standalone="no"?>
<!-- Uploaded to: SVG Repo, www.svgrepo.com, Generator: SVG Repo Mixer Tools -->

<svg
   fill="#000000"
   height="24"
   width="35.971283"
   version="1.1"
   id="Layer_1"
   viewBox="0 0 23.021621 15.36"
   enable-background="new 0 0 512 512"
   xml:space="preserve"
   sodipodi:docname="next.svg"
   inkscape:version="1.2.2 (b0a8486541, 2022-12-01)"
   xmlns:inkscape="http://www.inkscape.org/namespaces/inkscape"
   xmlns:sodipodi="http://sodipodi.sourceforge.net/DTD/sodipodi-0.dtd"
   xmlns="http://www.w3.org/2000/svg"
   xmlns:svg="http://www.w3.org/2000/svg"><defs
   id="defs7" /><sodipodi:namedview
   id="namedview5"
   pagecolor="#ffffff"
   bordercolor="#000000"
   borderopacity="0.25"
   inkscape:showpageshadow="2"
   inkscape:pageopacity="0.0"
   inkscape:pagecheckerboard="0"
   inkscape:deskcolor="#d1d1d1"
   showgrid="false"
   inkscape:zoom="18.88"
   inkscape:cx="31.144068"
   inkscape:cy="10.460805"
   inkscape:window-width="1920"
   inkscape:window-height="1172"
   inkscape:window-x="1920"
   inkscape:window-y="0"
   inkscape:window-maximized="1"
   inkscape:current-layer="Layer_1" />
<path
   d="m 21.101655,0.00503738 h -0.957736 c -1.056656,0 -1.919967,0.8588144 -1.919967,1.91996722 V 4.2631381 L 11.357933,0.22536148 c -0.971225,-0.5710441 -1.7625929,0.0036 -1.7625929,1.28147702 V 4.8296859 L 1.762593,0.22086508 C 0.7913683,-0.35017902 0,0.22446508 0,1.5023421 V 13.858479 c 0,1.272483 0.7913683,1.852521 1.762593,1.281476 l 7.8327471,-4.60882 v 3.327344 c 0,1.272483 0.7913679,1.852521 1.7625929,1.281476 l 6.866019,-4.037776 v 2.333637 c 0,1.056656 0.858814,1.919967 1.919967,1.919967 h 0.957736 c 1.056656,0 1.919967,-0.858814 1.919967,-1.919967 V 1.9250046 c 0,-1.06115282 -0.858814,-1.91996722 -1.919967,-1.91996722 z"
   id="path2"
   style="stroke-width:0.0449641" />
</svg>
